<svg xmlns="http://www.w3.org/2000/svg" viewBox="0 0 512 384">
  <g fill-rule="evenodd">
    <path d="M57.77 136.383h318.39c15.738 0 28.617 12.879 28.617 28.62v179.18c0 15.743-12.879 28.622-28.617 28.622H57.77c-15.743 0-28.622-12.88-28.622-28.621v-179.18c0-15.742 12.88-28.621 28.622-28.621zm0 0" fill="#d0d7df"/>
    <path d="M113.48 216.965c56.997 0 103.485-46.485 103.485-103.48S170.477 10 113.48 10C56.484 10 10 56.488 10 113.484s46.484 103.48 103.48 103.48zm0 0" fill="#a4b0c0"/>
    <path d="M320.445 216.965c56.996 0 103.485-46.485 103.485-103.48S377.44 10 320.445 10s-103.48 46.488-103.48 103.484 46.484 103.48 103.48 103.48zm0 0" fill="#a4b0c0"/>
    <path d="M457.07 187.57H502v134.047h-44.93zm0 0" fill="#88c9f7"/>
    <path d="m404.777 215.645 52.293-28.075v134.047l-52.293-28.074zm0 0" fill="#a4b0c0"/>
  </g>
  <path d="M115.89 337.879H73.177c-5.524 0-10-4.477-10-10 0-5.524 4.476-10 10-10h42.715c5.523 0 10 4.476 10 10 0 5.523-4.477 10-10 10zm0 0" fill="#363636"/>
  <path d="M113.48 65.262c-26.585 0-48.218 21.633-48.218 48.222s21.629 48.22 48.218 48.22c26.59 0 48.223-21.63 48.223-48.22S140.07 65.262 113.48 65.262zm0 76.441c-15.558 0-28.218-12.656-28.218-28.219s12.66-28.222 28.218-28.222c15.563 0 28.223 12.66 28.223 28.222s-12.66 28.22-28.223 28.22zM320.445 65.262c-26.59 0-48.222 21.633-48.222 48.222s21.632 48.22 48.222 48.22 48.223-21.63 48.223-48.22-21.633-48.222-48.223-48.222zm0 76.441c-15.558 0-28.222-12.656-28.222-28.219s12.66-28.222 28.222-28.222 28.223 12.66 28.223 28.222-12.66 28.22-28.223 28.22zm0 0" fill-rule="evenodd" fill="#363636"/>
  <path d="M502 177.57h-44.93c-.351 0-.699.02-1.039.055-.008 0-.011.004-.015.004-.395.039-.778.11-1.153.195a11.59 11.59 0 0 0-1.438.441c-.394.157-.78.329-1.152.532l-37.496 20.129v-22.43c12.09-18.035 19.149-39.715 19.149-63.016C433.926 50.906 383.02 0 320.446 0c-45.989 0-85.676 27.496-103.481 66.914C199.156 27.496 159.469 0 113.48 0 50.906 0 0 50.906 0 113.484c0 23.297 7.062 44.977 19.148 63.012v167.688c0 21.296 17.329 38.62 38.622 38.62h119.195c5.523 0 10-4.476 10-10 0-5.523-4.477-10-10-10H57.77c-10.266 0-18.622-8.35-18.622-18.62v-145.02c19.93 17.309 45.93 27.8 74.336 27.8 45.989 0 85.672-27.495 103.48-66.913 17.81 39.414 57.497 66.914 103.481 66.914 28.407 0 54.407-10.492 74.332-27.8v145.019c0 10.27-8.351 18.62-18.617 18.62H256.965c-5.524 0-10 4.477-10 10 0 5.524 4.476 10 10 10h119.191c21.297 0 38.621-17.324 38.621-38.62v-33.922l37.496 20.129c.36.195.73.363 1.114.515.086.035.172.063.258.098.273.098.554.187.835.262l.313.082c.277.062.562.117.848.156l.293.047c.375.043.753.066 1.14.066H502c5.523 0 10-4.476 10-10V187.57c0-5.523-4.477-10-10-10zm-388.52 29.395c-51.542 0-93.48-41.938-93.48-93.48C20 61.937 61.938 20 113.48 20s93.473 41.926 93.485 93.465v.039c-.012 51.535-41.942 93.46-93.485 93.46zm206.965 0c-51.539 0-93.468-41.926-93.48-93.461v-.044c.012-51.534 41.941-93.46 93.48-93.46 51.547 0 93.485 41.938 93.485 93.48 0 51.547-41.938 93.485-93.485 93.485zm94.332 14.66 32.293-17.336V304.9l-32.293-17.337zM492 311.617h-24.93V197.57H492zm0 0" fill-rule="evenodd" fill="#363636"/>
  <path d="M216.965 362.805c-5.508 0-10 4.492-10 10 0 5.507 4.492 10 10 10s10-4.493 10-10c0-5.508-4.492-10-10-10zm0 0" fill-rule="evenodd" fill="#363636"/>
</svg>
